<?xml version="1.0" encoding="utf-8"?>
<!-- Generator: Adobe Illustrator 19.0.0, SVG Export Plug-In . SVG Version: 6.00 Build 0)  -->
<svg version="1.1" id="svg2" xmlns:svg="http://www.w3.org/2000/svg"
	 xmlns="http://www.w3.org/2000/svg" xmlns:xlink="http://www.w3.org/1999/xlink" x="0px" y="0px" viewBox="14 77 640 640"
	 style="enable-background:new 14 77 640 640;" xml:space="preserve">
<style type="text/css">
	.st0{fill:#FCFCFC;}
</style>
<g id="layer1">
	<path id="path1882" class="st0" d="M334,97.3L303,156l-17.7,33.1c-4.9,4.3-9.8,8.5-19.4,4.4l-39.6-20l0.1,0.6l-0.4-0.2l9.2,48
		l17.1,93.4c2.4,15.9-6.7,24.7-20.2,11.7L170,258.5l-11.1,37.6c-1.8,3.3-6,5.5-12.3,4.7l-77.2-16.5l23.5,86c1.9,6.1,0.5,10.6-2.5,13
		L58.3,399l131.1,107.7c5.5,4.3,8.5,7,7.2,18.7L185.5,563l128.7-14.1c5.1-0.4,9.4,1.7,9.3,4.8l-7.8,142.6l36.9,0.5l-8.7-142.9
		c-0.1-3.7,3.2-5.5,8.8-4.9l130.7,14.8l-10.1-33.4c-2.4-7.1-3.4-14.1,2.3-20.8l134.1-110.1l-32.1-15.7c-3-2.3-4.4-6.9-2.5-13
		l23.5-86l-77.2,16.5c-6.3,0.8-10.6-1.4-12.3-4.7L498,258.9l-62.1,68.5c-13.4,13-22.6,4.2-20.2-11.7L436.2,204l5.8-30.5l-39.6,20
		c-9.8,4.1-14.8-0.2-19.7-4.6L334,97.3z"/>
</g>
</svg>
